<svg width="256" height="256" viewBox="0 0 256 256" fill="none" xmlns="http://www.w3.org/2000/svg">
  <defs>
    <linearGradient id="cGrad1" x1="128" y1="20" x2="128" y2="128" gradientUnits="userSpaceOnUse">
      <stop offset="0%" stop-color="#a5f3fc" />
      <stop offset="100%" stop-color="#06b6d4" />
    </linearGradient>
    <linearGradient id="cGrad2" x1="128" y1="128" x2="128" y2="236" gradientUnits="userSpaceOnUse">
      <stop offset="0%" stop-color="#0891b2" />
      <stop offset="100%" stop-color="#164e63" />
    </linearGradient>
    <linearGradient id="cGrad3" x1="20" y1="128" x2="128" y2="128" gradientUnits="userSpaceOnUse">
      <stop offset="0%" stop-color="#8b5cf6" />
      <stop offset="100%" stop-color="#c4b5fd" />
    </linearGradient>
    <linearGradient id="cGrad4" x1="128" y1="128" x2="236" y2="128" gradientUnits="userSpaceOnUse">
      <stop offset="0%" stop-color="#d8b4fe" />
      <stop offset="100%" stop-color="#6d28d9" />
    </linearGradient>
    <filter id="glow" x="-30%" y="-30%" width="160%" height="160%">
      <feGaussianBlur stdDeviation="12" result="blur" />
      <feComposite in="SourceGraphic" in2="blur" operator="over" />
    </filter>
  </defs>
  <g filter="url(#glow)">
    <polygon points="128,20 160,100 128,128" fill="url(#cGrad1)"/>
    <polygon points="128,20 96,100 128,128" fill="url(#cGrad1)"/>
    <polygon points="128,236 160,156 128,128" fill="url(#cGrad2)"/>
    <polygon points="128,236 96,156 128,128" fill="url(#cGrad2)"/>
    <polygon points="20,128 100,96 128,128" fill="url(#cGrad3)"/>
    <polygon points="20,128 100,160 128,128" fill="url(#cGrad3)"/>
    <polygon points="236,128 156,96 128,128" fill="url(#cGrad4)"/>
    <polygon points="236,128 156,160 128,128" fill="url(#cGrad4)"/>
    <polygon points="160,100 236,128 128,128" fill="#a78bfa" opacity="0.8"/>
    <polygon points="160,156 236,128 128,128" fill="#5b21b6" opacity="0.8"/>
    <polygon points="96,100 20,128 128,128" fill="#38bdf8" opacity="0.8"/>
    <polygon points="96,156 20,128 128,128" fill="#155e75" opacity="0.8"/>
    <polygon points="128,20 160,100 236,128 160,156 128,236 96,156 20,128 96,100" fill="none" stroke="#ffffff" stroke-width="2" opacity="0.5"/>
    <line x1="128" y1="20" x2="128" y2="236" stroke="#ffffff" stroke-width="2" opacity="0.6"/>
    <line x1="20" y1="128" x2="236" y2="128" stroke="#ffffff" stroke-width="2" opacity="0.6"/>
  </g>
</svg>