<svg xmlns="http://www.w3.org/2000/svg" width="1024" height="1024" viewBox="0 0 1024 1024" fill="none">
  <defs>
    <linearGradient id="bg" x1="128" y1="96" x2="920" y2="928" gradientUnits="userSpaceOnUse">
      <stop stop-color="#14081F"/>
      <stop offset="0.45" stop-color="#1B0F32"/>
      <stop offset="1" stop-color="#0A1628"/>
    </linearGradient>
    <linearGradient id="ring" x1="512" y1="220" x2="512" y2="804" gradientUnits="userSpaceOnUse">
      <stop stop-color="#5EEAD4" stop-opacity="0.95"/>
      <stop offset="0.5" stop-color="#A78BFA" stop-opacity="0.9"/>
      <stop offset="1" stop-color="#F472B6" stop-opacity="0.85"/>
    </linearGradient>
    <filter id="glow" x="-20%" y="-20%" width="140%" height="140%">
      <feGaussianBlur stdDeviation="28" result="b"/>
      <feMerge>
        <feMergeNode in="b"/>
        <feMergeNode in="SourceGraphic"/>
      </feMerge>
    </filter>
  </defs>
  <rect width="1024" height="1024" rx="224" fill="url(#bg)"/>
  <circle cx="780" cy="200" r="140" fill="#2DD4BF" fill-opacity="0.07"/>
  <circle cx="220" cy="780" r="160" fill="#C084FC" fill-opacity="0.08"/>
  <g filter="url(#glow)">
    <path d="M512 248L688 348V576L512 676L336 576V348L512 248Z" stroke="url(#ring)" stroke-width="36" stroke-linejoin="round" fill="none" opacity="0.92"/>
    <path d="M512 320L620 386V518L512 584L404 518V386L512 320Z" fill="#1E1038" fill-opacity="0.85" stroke="rgba(167,139,250,0.35)" stroke-width="8"/>
  </g>
  <path d="M512 360L548 420H476L512 360Z" fill="#5EEAD4"/>
  <circle cx="512" cy="452" r="28" fill="#FBBF24"/>
  <path d="M680 680L712 744L780 756L712 768L680 832L648 768L580 756L648 744L680 680Z" fill="#5EEAD4" fill-opacity="0.9"/>
  <path d="M280 420L296 452L330 458L296 464L280 496L264 464L230 458L264 452L280 420Z" fill="#F472B6" fill-opacity="0.85"/>
  <circle cx="720" cy="440" r="12" fill="#FBBF24" fill-opacity="0.9"/>
</svg>
